<svg xmlns="http://www.w3.org/2000/svg" viewBox="0 0 536.21 76.79"><path d="M61.16 75.36a1 1 0 0 0 .92-1.68L45.56 47.33a1.67 1.67 0 0 1 .77-2.47s16.61-7.18 16.61-21.66C62.94 3.02 42.59.25 42.59.25A36.74 36.74 0 0 0 38.67 0H1.97a2 2 0 0 0-2 2v71.41a2 2 0 0 0 2 2H14.6a2 2 0 0 0 2-2V47.88a2 2 0 0 1 2-2h7.73a3.9 3.9 0 0 1 3 1.68l16.21 26.11a4 4 0 0 0 3 1.68h12.62zM17 15.36a2 2 0 0 1 1.95-2h14.08a18.07 18.07 0 0 1 3.84.51s9.41 2.63 9.41 9.84c0 7.55-9.41 10.16-9.41 10.16a17.46 17.46 0 0 1-3.84.51h-14.1a2 2 0 0 1-1.95-1.95V15.38zM65.86.75h11.82a5.05 5.05 0 0 1 2.19.4 4.3 4.3 0 0 1 2 2 26.89 26.89 0 0 0 1.5 2.5c1.19 1.89 2.31 3.77 3.35 5.66s2.17 3.75 3.35 5.62c.91 1.42 1.76 2.83 2.52 4.25s1.6 2.85 2.52 4.25c.35.56.69 1.16 1 1.83a2.16 2.16 0 0 0 1.67 1.19 1.25 1.25 0 0 0 1.26-.51c.35-.42.64-.77.83-1 .64-1 1.2-2 1.72-2.93s1.12-2 1.75-2.92c1.47-2.38 2.88-4.77 4.27-7.19s2.82-4.82 4.3-7.26c.55-.91 1.14-2 1.77-3.15a5 5 0 0 1 2.42-2.38 5.51 5.51 0 0 1 3-.43c1.36.07 2.52.1 3.5.1h5.87c.55 0 1.14 0 1.73.06a3.1 3.1 0 0 1 1.4.36 1.24 1.24 0 0 1 .43 1.65 10.68 10.68 0 0 1-.74 1.6c-.84 1.4-1.66 2.77-2.45 4.14s-1.63 2.72-2.45 4.13q-3.57 5.65-6.87 11.3t-6.75 11.3c-.76 1.12-1.48 2.24-2.14 3.38s-1.35 2.33-2 3.53a26.26 26.26 0 0 0-1.52 2.3 10.78 10.78 0 0 0-1.09 2.61 2.83 2.83 0 0 0-.07 1 3.27 3.27 0 0 1-.05 1 2.31 2.31 0 0 0-.1.74v17.68c0 1.31 0 2.75.05 4.27s-.38 2.56-1.21 3a2.73 2.73 0 0 1-1.63.42h-9.24a14.66 14.66 0 0 1-2.09-.1 2.22 2.22 0 0 1-1.49-.73 2.18 2.18 0 0 1-.51-1.45c0-.56 0-1.23-.09-2v-23a3.47 3.47 0 0 0-.22-1.22 11.76 11.76 0 0 0-1.14-2.82c-.5-.83-1-1.64-1.59-2.41-.62-1.11-1.24-2.21-1.88-3.28s-1.3-2.18-2-3.3a16.28 16.28 0 0 1-1.47-2.46 15 15 0 0 0-1.45-2.46c-1.83-2.87-3.56-5.73-5.25-8.58s-3.38-5.73-5.1-8.6c-.85-1.41-1.66-2.73-2.42-4s-1.53-2.64-2.31-4a15.76 15.76 0 0 1-.88-1.4 1.67 1.67 0 0 1-.16-1.72 1.16 1.16 0 0 1 .57-.57 3.74 3.74 0 0 1 .78-.27.64.64 0 0 1 .43-.05.54.54 0 0 0 .36-.08zM204.07 35.56a5.7 5.7 0 0 0 .05.87 11 11 0 0 1 .07 1.15 11.49 11.49 0 0 1-.03 1.17 4.6 4.6 0 0 0-.05.73v1.42a11.48 11.48 0 0 0-.07 1.31 2.5 2.5 0 0 0-.14 1 3.7 3.7 0 0 1-.05 1.05 20.81 20.81 0 0 0-.31 2.3 16.91 16.91 0 0 1-.43 2.32c-.35 1.2-.67 2.32-.94 3.41a26.18 26.18 0 0 1-1.05 3.21 36.79 36.79 0 0 1-4.42 8 26.33 26.33 0 0 1-6.28 6.08 28.84 28.84 0 0 1-4.37 2.53 43.53 43.53 0 0 1-4.88 1.89 13.81 13.81 0 0 1-2.15.46 19.79 19.79 0 0 0-2.27.47 3.85 3.85 0 0 1-1 .11 5.31 5.31 0 0 0-1 .11 1.76 1.76 0 0 1-.85.05 3.69 3.69 0 0 0-.93 0 .9.9 0 0 1-.6.07 1.12 1.12 0 0 0-.66.05 7.19 7.19 0 0 1-2.1.1 21.45 21.45 0 0 0-2.2-.1h-24.55a21.06 21.06 0 0 1-3-.17 2.06 2.06 0 0 1-1.7-1.4 7.17 7.17 0 0 1-.27-2.56c0-1.16.07-2.11.07-2.87V6.75c0-.85 0-1.75-.07-2.69a4 4 0 0 1 .48-2.25 3.32 3.32 0 0 1 1.58-1.06.77.77 0 0 1 .41 0 .68.68 0 0 0 .44-.05h28.22c.42 0 .86 0 1.32-.05a4.42 4.42 0 0 1 1.2.05h1.26a2.29 2.29 0 0 0 1.16.16 2.78 2.78 0 0 1 1.16.15 2.84 2.84 0 0 0 1.2.17 3.12 3.12 0 0 1 1.21.16l2.84.57a13.42 13.42 0 0 1 2.63.8c.77.35 1.53.66 2.3.94a12.53 12.53 0 0 1 2.2 1c1.75 1.12 3.34 2.21 4.83 3.27l.62.62a12.55 12.55 0 0 1 1.9 1.89l.94.85a12.93 12.93 0 0 0 1.21 1.63 12.42 12.42 0 0 1 1.21 1.63 31.16 31.16 0 0 1 2.39 4.67 50 50 0 0 1 1.9 5.2 10.86 10.86 0 0 1 .68 2.82c.12 1 .28 2 .46 2.92a5.56 5.56 0 0 0 .07.91c0 .24.05.52.05.78a4.1 4.1 0 0 1 .16 1.38 2.86 2.86 0 0 0 .15 1.25v1.13zm-16.38 5.07a7 7 0 0 0 0-3.37v-2a12.67 12.67 0 0 1-.26-2 10 10 0 0 0-.26-1.88 2 2 0 0 1-.16-1 1.93 1.93 0 0 0-.16-1c-.35-1.13-.69-2.2-1-3.21a14.34 14.34 0 0 0-1.32-2.9 20.46 20.46 0 0 0-3.64-4.34 18.28 18.28 0 0 0-5-3.1c-.63-.22-1.26-.41-1.88-.58s-1.27-.33-1.89-.49-1.07-.11-1.52-.15a8.29 8.29 0 0 1-1.52-.26 2.78 2.78 0 0 0-.85-.06 1.36 1.36 0 0 1-.71 0h-2.32a4.13 4.13 0 0 0-1.17 0h-5.97a.71.71 0 0 1-.69.1 1.79 1.79 0 0 0-.78 0 10.72 10.72 0 0 1-1.06.37 1.47 1.47 0 0 0-.83.69 2.19 2.19 0 0 0-.41 1.47V19c0 .93 0 1.87-.07 2.86s-.06 1.89-.06 2.89v29.29c0 .42 0 .87-.05 1.36a2.7 2.7 0 0 0 .18 1.25V59.08a4.79 4.79 0 0 0 .25 1.21 2.57 2.57 0 0 0 2.43 1.31H168.93a20.21 20.21 0 0 0 7.13-1.21 15.74 15.74 0 0 0 6.14-4.2 23.12 23.12 0 0 0 3.96-6.44 7.71 7.71 0 0 0 .64-1.9 18.82 18.82 0 0 1 .53-2.1v-.85a5.9 5.9 0 0 0 .2-1.55 7.17 7.17 0 0 1 .21-1.68v-1.05zM215.68.62h48.39c.84 0 1.65 0 2.42.1a2.2 2.2 0 0 1 1.67.84 1.68 1.68 0 0 1 .28.75 2.46 2.46 0 0 0 .26.84v1.16a9 9 0 0 1 .05 1.56c-.05.58-.05 1.09-.05 1.57a16.3 16.3 0 0 0 .05 1.63 8.64 8.64 0 0 1-.05 1.52 8.94 8.94 0 0 0-.1 1.58 2.66 2.66 0 0 1-1 1.68 2.88 2.88 0 0 1-1.59.42h-32.47a11.59 11.59 0 0 0-2 .21 3.24 3.24 0 0 0-1.37.47 2.17 2.17 0 0 0-.9 1.5 14.84 14.84 0 0 0-.16 2.27v9a13.71 13.71 0 0 0 .43 1.4 1.64 1.64 0 0 0 .72.89 2.91 2.91 0 0 0 1.48.47c.55 0 1.14.05 1.79.05h23.72c.49 0 1.11 0 1.84-.05s1.46 0 2.17 0 1.33.09 1.91.15a2.6 2.6 0 0 1 1.32.44 1.8 1.8 0 0 1 .75 1.25 12.56 12.56 0 0 1 .26 2v2.27s-.05 1.44-.05 2v1.47a3.53 3.53 0 0 1-.21 1.27 2.58 2.58 0 0 1-.85 1.35 3.91 3.91 0 0 1-1.42.42 14.49 14.49 0 0 1-2 .1c-.73 0-1.46 0-2.2-.06s-1.36 0-1.84 0h-22.89a10.64 10.64 0 0 0-2.14.08 3.78 3.78 0 0 0-1.68.65 2.48 2.48 0 0 0-1 1.4 4.5 4.5 0 0 0-.12 1.1v11a14.94 14.94 0 0 0 .16 2.28 2.2 2.2 0 0 0 .9 1.51 1.1 1.1 0 0 0 .79.36 3.34 3.34 0 0 1 1 .27h1.06a4.52 4.52 0 0 0 1.15-.04 8.9 8.9 0 0 1 1.16-.05h31.34a3 3 0 0 1 1.4.3 1.9 1.9 0 0 1 1.16 1.16 4.44 4.44 0 0 1 .26 1.26v6.41a20.49 20.49 0 0 1-.1 2.35 2 2 0 0 1-.93 1.63 2.38 2.38 0 0 1-1.62.54h-49.36a16.66 16.66 0 0 1-2.58-.17 2.08 2.08 0 0 1-1.63-1 3 3 0 0 1-.41-1.63V3.23a2.33 2.33 0 0 1 .41-1.45 2.39 2.39 0 0 1 1.58-1.06.79.79 0 0 1 .41 0 .61.61 0 0 0 .43-.1zM281.94.62h8.52c.76 0 1.5 0 2.25-.05a4 4 0 0 1 1.94.36 3.81 3.81 0 0 1 1.63 1.27c.38.55.74 1.12 1.09 1.68l3.79 6q3.66 6 7.41 11.92c2.46 4 4.93 7.91 7.4 11.91 1.17 1.86 2.35 3.79 3.51 5.72s2.35 3.81 3.62 5.61c.28.42.54.84.78 1.26a4.68 4.68 0 0 0 1 1.16 3.79 3.79 0 0 0 .52.41.53.53 0 0 0 .64 0 .9.9 0 0 0 .73-.93 6.88 6.88 0 0 1 .21-1.59 6.86 6.86 0 0 0 .05-1.63c0-.59-.05-1.16-.05-1.72V7a9.82 9.82 0 0 0-.05-1 2.87 2.87 0 0 1 .05-1V3.84a3.72 3.72 0 0 1 .64-2.32 2 2 0 0 1 1.42-.84 20 20 0 0 1 2-.1h8.12a4.12 4.12 0 0 1 1.47.23 2 2 0 0 1 1.47 1.82c.07.89.12 1.9.12 3.1v64.33c0 .79 0 1.57.05 2.33a3.2 3.2 0 0 1-.38 1.79 1.77 1.77 0 0 1-1 .79c-.4.11-.87.24-1.42.37h-11.31a3.48 3.48 0 0 1-1.53-.33 4.18 4.18 0 0 1-1.78-1.4c-.41-.6-.82-1.25-1.25-2-.63-1-1.25-2-1.84-3s-1.2-2-1.85-3l-15.75-25.1c-1-1.6-1.93-3.15-2.88-4.67s-1.92-3.06-2.9-4.67c-.34-.48-.74-1.12-1.19-1.84a2.1 2.1 0 0 0-1.83-1.09 2.32 2.32 0 0 0-.9 1.68v40a2.16 2.16 0 0 1-.15 1v1.16a4.37 4.37 0 0 1-.54 2.42 2 2 0 0 1-1.4.71 13.77 13.77 0 0 1-2.06.12h-8.06a4.11 4.11 0 0 1-1.48-.22 2.17 2.17 0 0 1-1.52-1.87 27.13 27.13 0 0 1-.18-3.18V3.75a4.13 4.13 0 0 1 .43-2 2.41 2.41 0 0 1 1.48-1.06 2.52 2.52 0 0 0 .47 0c.2-.03.36-.07.49-.07zM383.75.75h9c.78 0 1.51 0 2.22.06a1.94 1.94 0 0 1 1.55.78 3.65 3.65 0 0 1 .59 1.9V68.75c0 .9 0 1.92.05 3a4.47 4.47 0 0 1-.47 2.53 3.05 3.05 0 0 1-1.89 1.16 3.93 3.93 0 0 1-1.57.11 9.65 9.65 0 0 0-1.68-.11h-6.22a19.76 19.76 0 0 1-2.14-.1 3 3 0 0 1-1.63-.64 2.39 2.39 0 0 1-.61-1.56 18.56 18.56 0 0 1-.1-2.22V8.19c0-1 0-2.15-.07-3.46a5.33 5.33 0 0 1 .48-2.85 2.94 2.94 0 0 1 1.35-1 2.62 2.62 0 0 0 .57-.07c.29-.06.45-.06.57-.06zM438.5 19.94a22.58 22.58 0 0 1 10.49 1.81 15.37 15.37 0 0 1 6.62 5.87 11.56 11.56 0 0 1 1.16 2.46c.28.91.58 1.79.83 2.71a9 9 0 0 1 .28 1.56 7.08 7.08 0 0 0 .28 1.4 2.24 2.24 0 0 0 .1.84 21.54 21.54 0 0 1 .21 3v33.22a2.28 2.28 0 0 1-1.53 2.34 4.47 4.47 0 0 1-1.46.23h-7.36a14.32 14.32 0 0 1-2.27-.15 2.26 2.26 0 0 1-1.51-.91 3 3 0 0 1-.46-1.6c-.05-.68-.05-1.39-.05-2.17v-23c0-2.58-.12-5-.31-7.19a12 12 0 0 0-1.9-5.61 7.61 7.61 0 0 0-4.31-2.94 2.86 2.86 0 0 0-1.15-.06 4.94 4.94 0 0 1-1.21-.2 4.14 4.14 0 0 0-1.3-.06 7.39 7.39 0 0 0-1.21.16 3.29 3.29 0 0 1-.75.11 2.62 2.62 0 0 0-.62.09 11.62 11.62 0 0 0-3.88 1.68 9.82 9.82 0 0 0-4 7 76.05 76.05 0 0 0-.62 10.39v21.42a3.88 3.88 0 0 1-.32 1.58 2.16 2.16 0 0 1-1.7 1.35 15.41 15.41 0 0 1-2.82.23h-5.25c-.78 0-1.54 0-2.3-.1a2.35 2.35 0 0 1-1.68-.74 4.14 4.14 0 0 1-.69-2.72c0-1.2.06-2.32.06-3.36V25.81v-2.09a2.57 2.57 0 0 1 .59-1.57 1.24 1.24 0 0 1 .68-.47 8.84 8.84 0 0 1 1-.27h.52a6.55 6.55 0 0 1 1.09-.09h5.51a15.53 15.53 0 0 1 1.64.06 5.63 5.63 0 0 1 1.42.24 1.94 1.94 0 0 1 1 1 15.55 15.55 0 0 1 .48 1.48 1.75 1.75 0 0 1 0 .75.94.94 0 0 0 .15.62 1.16 1.16 0 0 0 .38.61 4.09 4.09 0 0 0 .47.34 2.14 2.14 0 0 0 1.89-.8 6.83 6.83 0 0 1 1.57-1.42 25.21 25.21 0 0 1 6.29-3.35 9 9 0 0 1 2-.43c.67-.06 1.39-.17 2.15-.31a2.49 2.49 0 0 1 1-.06 2.57 2.57 0 0 0 .8-.11zM491.06 19.83c5.66-.12 10.41.71 14.22 2.53a22.32 22.32 0 0 1 9.09 7.75 18.67 18.67 0 0 1 2.5 5.79 7.07 7.07 0 0 1 .37 1.36 2.61 2.61 0 0 1-.08 1.49 1.83 1.83 0 0 1-1.46 1.31 17 17 0 0 1-2.53.16h-7.41a2.84 2.84 0 0 1-1.6-.47 2.19 2.19 0 0 1-1.16-1.29 11.17 11.17 0 0 0-.85-1.84 14.57 14.57 0 0 0-1.37-2.11 9.16 9.16 0 0 0-1.66-1.66 12.48 12.48 0 0 0-3.27-1.5 4.72 4.72 0 0 0-1.25-.2 3.36 3.36 0 0 1-1.16-.21h-1.05a11.2 11.2 0 0 0-3.36.4 11.8 11.8 0 0 0-4.92 2.9 15.11 15.11 0 0 0-3 4.68 11 11 0 0 0-.79 2.48c-.19.87-.36 1.8-.59 2.78a3.63 3.63 0 0 0-.1.83 3.46 3.46 0 0 1-.11.84 13.57 13.57 0 0 0-.16 2.94 18.05 18.05 0 0 0 .26 2.94 4.44 4.44 0 0 0 .1 1.16 7.41 7.41 0 0 1 .26 1.47 6.89 6.89 0 0 0 .26 1.47 24.84 24.84 0 0 0 2 4.42 11.62 11.62 0 0 0 2.93 3.35 8 8 0 0 0 1.26.74 6.74 6.74 0 0 0 2.36.95c.81.13 1.79.27 3 .42h.61a1.35 1.35 0 0 0 .63-.11h1c.48-.14 1-.25 1.4-.36s.9-.23 1.32-.37a10.67 10.67 0 0 0 4.83-4 5.49 5.49 0 0 0 .73-1.2c.22-.47.39-.86.54-1.23.27-.76.52-1.43.73-2a2.54 2.54 0 0 1 1.49-1.41 7.54 7.54 0 0 1 3-.37h4.99a3.46 3.46 0 0 1 1.32.15h.78c.29.08.56.12.85.18a.92.92 0 0 1 .62.25 2.09 2.09 0 0 1 .7 1.21 3.63 3.63 0 0 1-.07 1.61 33.64 33.64 0 0 1-2.3 6.21 23.11 23.11 0 0 1-13.75 11.23 14.31 14.31 0 0 1-2.2.47 17.51 17.51 0 0 0-2.32.47 6.31 6.31 0 0 1-1.27.11 6.41 6.41 0 0 0-1.25.11h-1.16a4.32 4.32 0 0 1-1.58.14 10 10 0 0 1-1.57-.14 5.15 5.15 0 0 0-1.53-.17 3.26 3.26 0 0 1-1.42-.15 10 10 0 0 0-1-.16 10.24 10.24 0 0 1-1.06-.15c-.76-.21-1.5-.41-2.2-.62a20.87 20.87 0 0 1-2-.74 26.36 26.36 0 0 1-8.28-5.41 25.33 25.33 0 0 1-5.47-8.23 9.53 9.53 0 0 1-.83-2c-.21-.75-.42-1.49-.62-2.26a2.71 2.71 0 0 1-.12-.78 2.25 2.25 0 0 0-.2-.89 5.55 5.55 0 0 1-.21-1.52 4.88 4.88 0 0 0-.2-1.53v-1.78a3.34 3.34 0 0 1-.21-1.21 3.29 3.29 0 0 1 .21-1.22 2.14 2.14 0 0 0 0-.93 1.77 1.77 0 0 1 0-.83 3.66 3.66 0 0 0 .16-1.39 3.36 3.36 0 0 1 .16-1.24c.34-1.27.63-2.48.85-3.64a17.7 17.7 0 0 1 1-3.4 28.78 28.78 0 0 1 5.81-8.93 26.76 26.76 0 0 1 9-5.78 13 13 0 0 1 3-.88c1-.17 2.13-.4 3.26-.68a11.44 11.44 0 0 1 1.58-.11 11 11 0 0 0 1.52-.2zM519.92 64.12v-2a2.44 2.44 0 0 1 .43-1.57 2.79 2.79 0 0 1 1.57-1.16 2.31 2.31 0 0 1 .47 0 .68.68 0 0 0 .47 0h10.66a3.16 3.16 0 0 1 1.84.52 2.24 2.24 0 0 1 .73 1.49 18.93 18.93 0 0 1 .12 2.1v7.54a20.6 20.6 0 0 1-.12 2.15 2 2 0 0 1-.63 1.43 3.46 3.46 0 0 1-1.76.62 17.69 17.69 0 0 1-2.22.12h-7a16.88 16.88 0 0 1-2.2-.12 2.23 2.23 0 0 1-1.57-.71 3 3 0 0 1-.63-1.63c-.07-.67-.12-1.4-.12-2.16v-6.62z" fill="#f5f5f5"/></svg>
